<svg xmlns:dc="http://purl.org/dc/elements/1.1/" xmlns:cc="http://creativecommons.org/ns#"
   xmlns:rdf="http://www.w3.org/1999/02/22-rdf-syntax-ns#" xmlns:svg="http://www.w3.org/2000/svg"
   xmlns="http://www.w3.org/2000/svg" version="1.1" viewBox="0 0 300 300">

   <svg version="1.1" viewBox="0 0 510 515">
      <g>
         <path style="fill:#01a4e3"
            d="m 101.9,124.2 c -6.6,-5.7 -13.1,-11.5 -19.3,-17.6 -1.3,-1.3 -2.7,-1.7 -4.4,-1.7 -7,0 -13.9,0 -20.9,-0.5 -5.2,-0.3 -10.5,-0.2 -16,-0.9 17.4,19.5 40.8,25.3 60.6,20.7 z M 73.5,98.3 C 73.2,97.7 73.1,97.4 72.9,97.2 66.8,91.1 60.9,84.9 55.1,78.6 54.6,78.1 54.1,77.6 53.3,77.7 50.8,77.8 48.4,77.3 45.9,77 40,76.3 34.2,75.6 28.4,74.6 23.9,73.8 19.4,73 14.5,72.2 c 1.8,2.6 3.5,5.1 5.2,7.4 7.4,10.1 17.2,16.1 29.6,17.8 8,1 16,0.3 24.2,0.9 z m 138.3,38.9 c 0.7,-0.6 0.7,-1 0.4,-1.8 -0.8,-2 -1.6,-4 -2.2,-6.1 -0.4,-1.4 -1.1,-1.3 -2,-0.7 -5.3,3 -10.8,5.6 -16.3,8.1 -6.5,2.9 -13.1,5.6 -19.8,8.2 -6.7,2.6 -13.4,4.9 -20.2,7.2 0,0.6 0.4,0.8 0.8,1 4,2.2 8.1,3.8 12.6,4.6 9.4,1.6 18.2,0.2 26.2,-4.8 7.4,-4.5 13.8,-10.3 20.5,-15.7 z m 4.9,17.2 c 1.1,-1.3 1.3,-2.4 0.8,-3.8 -0.7,-2 -1.6,-4 -2.3,-6.1 -0.3,-1.1 -0.6,-1.2 -1.4,-0.4 -10,8.4 -20.5,16.2 -31.2,23.8 0.1,0.2 0.2,0.4 0.3,0.5 0.1,0.1 0.3,0.3 0.5,0.4 8.4,2.7 16.2,2 23.4,-3.5 4.1,-3 6.7,-7.2 9.9,-10.9 z M 130,151.7 c 1.9,-0.4 3.7,-0.9 5.7,-1.4 0,0 -12.6,-8 -19.6,-14.5 -1.9,-1.5 -3.8,-3 -5.7,-4.5 -0.7,-0.5 -1.3,-0.9 -2.3,-0.8 -10.1,1.2 -20.1,2.5 -30.2,3 -0.4,0 -0.9,-0.3 -1,0.3 -0.1,0.5 0.2,0.6 0.6,0.9 3.3,2.3 6.5,4.7 9.7,7.1 5.7,4.1 11.8,7.2 18.5,9 5.1,1.2 13.3,2.9 24.3,0.9 z m 90.7,8.4 c -4.9,6.2 -9.8,11.9 -15,17.3 -1,1.1 -0.9,1.1 0.4,1.7 6.6,3.2 13.3,6.3 19.7,9.8 1.8,1 3.5,2.3 5.7,2.8 -1.8,-5.4 -3.6,-10.7 -5.3,-15.9 -1.8,-5.1 -3.6,-10.2 -5.5,-15.7 z m -53.6,-39.5 c -7.4,1.5 -14.9,3 -22.3,4.3 -4.4,0.8 -8.7,1.4 -13.1,2.1 -4.3,0.7 -8.6,1.4 -13.1,2.1 0.8,0.7 1.6,1.1 2.1,1.7 4.3,3.2 14.9,9.9 31.5,11.3 5.8,-0.1 11.4,-1.3 17,-3.4 5.7,-2.1 11.3,-4.4 16.8,-6.8 6.9,-3 13.7,-6.2 20.3,-10 0.7,-0.4 0.9,-0.8 0.6,-1.5 -1.1,-2.7 -2.3,-5.3 -3.6,-7.9 -0.5,-1.1 -1.3,-1 -2.1,-0.8 -6.5,2.1 -13.2,3.7 -19.9,5.3 -4.8,1.5 -9.5,2.7 -14.2,3.6 z M 47.3,71.1 C 47.2,70.8 47.2,70.5 47.1,70.4 41.8,64.4 36.7,58.2 31.7,51.9 31.3,51.4 30.8,51 30,50.9 21.5,50.3 13,49.6 4.5,48.9 c -0.4,0 -1,-0.4 -1.3,0.1 -0.3,0.5 0.1,1 0.3,1.4 5.3,9.2 13,15.4 23.5,17.6 6.6,1.5 13.4,2.1 20.3,3.1 z m 120.1,97.7 c -8.1,-4.2 -16.1,-8.4 -23.7,-13.4 -0.5,-0.4 -1,-0.4 -1.6,-0.2 -4.6,1.4 -9.2,2.9 -13.8,4.3 -2.8,0.8 -5.6,1.7 -8.8,2.6 5.6,3 10.6,5.8 15.7,8.5 10.8,5.7 21.5,5.7 32.1,-0.3 0.4,-0.2 0.8,-0.3 0.9,-0.8 0.1,-0.7 -0.5,-0.5 -0.8,-0.7 z M 40.2,51.1 c 10.7,12.8 24.3,20.3 41,21.4 12.9,0.9 25.7,0.6 38.6,0.2 10.1,-0.3 20.2,-0.8 30.3,-1.8 -35.6,-13 -72.8,-17.2 -110.3,-20.7 0.3,0.5 0.3,0.8 0.4,0.9 z m 148.7,42.4 c -0.6,0 -17.3,3.3 -24.5,4.6 -7.9,1.4 -15.8,2.5 -23.8,3.4 -12.9,1.4 -25.8,2.7 -38.7,2.9 -3.7,0.1 -7.4,0.4 -11.2,0.5 8.7,8.7 21.2,14.1 33.7,15.2 7.5,0.6 14.9,-0.8 22.2,-2.2 7.6,-1.4 15.1,-3 22.7,-4.7 9.4,-2.1 18.8,-4.5 28.1,-7 1.4,-0.4 1.5,-0.7 0.7,-1.9 -2.5,-3.1 -8.7,-10.2 -9.2,-10.8 z M 156.1,77.3 c -9.3,1.4 -18.9,1.5 -28.4,1.8 C 110,79.8 92.2,80 74.5,79 c -3.2,-0.2 -6.4,0 -9.8,0 1.1,1.1 2.1,2.3 3.2,3.4 2.8,2.7 5.8,5.1 9.1,7.1 9.1,5.6 19.1,8.4 29.8,8 11.6,-0.5 23.2,-1.5 34.7,-2.9 5.7,-0.7 11.4,-1.5 17.1,-2.4 4.3,-0.6 8.6,-1.3 12.9,-2.1 3.4,-0.6 6.8,-1.4 10.4,-2.2 -2.2,-2 -4.4,-3.4 -6.6,-4.8 -5.8,-3.7 -11.4,-7 -19.2,-5.8 z m 265.3,27.6 c -1.8,0 -3.1,0.4 -4.4,1.7 -6.2,6.1 -12.7,11.8 -19.3,17.6 19.8,4.6 43.2,-1.1 60.7,-20.6 -5.5,0.7 -10.8,0.6 -16,0.9 -7,0.3 -14,0.4 -21,0.4 z m 32.2,-28 c -2.4,0.3 -4.9,0.8 -7.4,0.7 -0.8,0 -1.3,0.4 -1.8,0.9 -5.8,6.4 -11.7,12.5 -17.8,18.6 -0.2,0.2 -0.3,0.5 -0.6,1.1 8.3,-0.6 16.2,0.1 24.1,-0.9 12.4,-1.7 22.2,-7.7 29.6,-17.8 1.7,-2.4 3.3,-4.8 5.2,-7.4 -4.8,0.8 -9.4,1.6 -13.9,2.4 -5.7,1.1 -11.6,1.8 -17.4,2.4 z M 347,153.1 c 0.4,-0.2 0.8,-0.3 0.8,-1 -6.7,-2.3 -13.5,-4.7 -20.2,-7.2 -6.7,-2.6 -13.3,-5.2 -19.8,-8.2 -5.5,-2.5 -11,-5.1 -16.3,-8.1 -0.9,-0.5 -1.6,-0.7 -2,0.7 -0.6,2.1 -1.4,4.1 -2.2,6.1 -0.3,0.8 -0.3,1.2 0.4,1.8 6.7,5.4 13.1,11.2 20.4,15.7 8,5 16.8,6.4 26.2,4.8 4.6,-0.8 8.8,-2.4 12.7,-4.6 z m -62.7,-8.6 c -0.6,2.1 -1.5,4 -2.3,6.1 -0.5,1.4 -0.3,2.5 0.8,3.8 3.2,3.7 5.9,7.9 9.9,11 7.2,5.5 15,6.2 23.4,3.5 0.2,-0.1 0.4,-0.2 0.5,-0.4 0.1,-0.1 0.2,-0.3 0.3,-0.5 -10.7,-7.6 -21.1,-15.5 -31.2,-23.8 -0.8,-0.8 -1,-0.8 -1.4,0.3 z m 137.3,-11 c -10.1,-0.6 -20.2,-1.9 -30.2,-3 -1,-0.1 -1.6,0.3 -2.3,0.8 -1.9,1.5 -3.8,3 -5.7,4.5 -6.9,6.5 -19.6,14.5 -19.6,14.5 2,0.5 3.9,1 5.7,1.4 11,1.9 19.2,0.3 24.2,-0.9 6.7,-1.8 12.8,-4.9 18.5,-9 3.2,-2.4 6.5,-4.8 9.7,-7.1 0.4,-0.3 0.7,-0.4 0.6,-0.9 0,-0.6 -0.5,-0.3 -0.9,-0.3 z m -142.7,26.6 c -1.9,5.4 -3.7,10.6 -5.5,15.8 -1.8,5.2 -3.5,10.4 -5.3,15.9 2.2,-0.5 3.9,-1.8 5.7,-2.8 6.4,-3.5 13.1,-6.6 19.7,-9.8 1.2,-0.6 1.4,-0.7 0.4,-1.7 -5.1,-5.5 -10,-11.1 -15,-17.4 z m 17.6,-47.4 c -1.3,2.6 -2.6,5.2 -3.6,7.9 -0.3,0.7 -0.1,1 0.6,1.5 6.6,3.7 13.4,6.9 20.3,10 5.5,2.4 11.1,4.7 16.8,6.8 5.6,2.1 11.2,3.3 17,3.4 16.6,-1.4 27.2,-8.1 31.5,-11.3 0.5,-0.6 1.2,-1 2.1,-1.7 -4.6,-0.7 -8.9,-1.4 -13.1,-2.1 -4.4,-0.7 -8.8,-1.3 -13.1,-2.1 -7.4,-1.4 -14.9,-2.8 -22.3,-4.3 -4.7,-1 -9.4,-2.2 -14.1,-3.3 -6.7,-1.6 -13.3,-3.3 -19.9,-5.3 -1,-0.5 -1.7,-0.6 -2.2,0.5 z M 495.1,49 c -8.5,0.7 -17,1.3 -25.5,2 -0.8,0.1 -1.2,0.4 -1.7,1 -5.1,6.2 -10.1,12.5 -15.4,18.5 -0.1,0.1 -0.1,0.4 -0.2,0.7 6.9,-1 13.7,-1.6 20.3,-3 10.5,-2.3 18.2,-8.4 23.5,-17.6 0.2,-0.4 0.6,-0.9 0.3,-1.4 -0.3,-0.7 -0.9,-0.3 -1.3,-0.2 z M 357.5,155.2 c -0.6,-0.2 -1,-0.2 -1.6,0.2 -7.6,5 -15.6,9.3 -23.7,13.4 -0.3,0.2 -0.9,0 -0.8,0.7 0.1,0.5 0.5,0.5 0.9,0.8 10.7,6 21.4,6.1 32.1,0.3 5.1,-2.7 10.1,-5.5 15.7,-8.5 -3.2,-1 -6,-1.8 -8.8,-2.6 -4.6,-1.4 -9.2,-2.9 -13.8,-4.3 z m 60.8,-82.7 c 16.7,-1.1 30.3,-8.6 41,-21.4 0.1,-0.1 0.1,-0.4 0.3,-0.9 -37.6,3.5 -74.7,7.7 -110.3,20.7 10.1,1 20.2,1.5 30.3,1.8 13,0.4 25.9,0.7 38.7,-0.2 z M 499.6,0.3 c -0.5,-0.5 -1.2,-0.2 -1.8,0 -3.4,1 -6.8,2.1 -10.2,3.1 -9.1,2.7 -18.2,5.5 -27.3,8.2 -6.1,1.8 -12.1,3.7 -18.2,5.6 -11.2,3.4 -22.3,6.8 -33.5,10.2 -11.1,3.4 -22.2,6.8 -33.3,10.1 -9.7,3 -19.4,5.9 -29,8.9 -9.3,2.9 -18.3,6.4 -26.9,10.9 -16.8,8.6 -31.2,20.1 -40.9,36.6 -5.1,8.6 -8.8,17.7 -11.9,27.1 -2.3,7 -4.8,13.9 -7,20.8 -2.8,8.7 -5.5,17.5 -8.1,26.2 -0.4,1.3 -1.1,2.6 -1.2,4 0,0.2 0,0.6 -0.3,0.6 h -0.1 -0.1 c -0.4,0 -0.3,-0.4 -0.3,-0.6 -0.1,-1.4 -0.8,-2.7 -1.2,-4 -2.7,-8.7 -5.3,-17.5 -8.1,-26.2 -2.2,-7 -4.7,-13.9 -7,-20.8 -3.1,-9.4 -6.8,-18.6 -11.9,-27.1 -9.8,-16.5 -24.1,-28 -40.9,-36.6 -8.6,-4.4 -17.6,-8 -26.9,-10.9 -9.7,-3 -19.4,-6 -29,-8.9 C 113.4,34.1 102.3,30.7 91.2,27.4 80,24 68.9,20.6 57.7,17.2 51.6,15.3 45.6,13.5 39.5,11.6 30.4,8.8 21.3,6.1 12.2,3.4 8.8,2.4 5.4,1.3 2,0.3 1.4,0.1 0.7,-0.2 0.2,0.3 c -0.4,0.4 0.1,1.1 0.2,1.6 0.9,2.8 1.8,5.6 2.9,8.3 4,10.1 9.4,19.3 18,26.2 4.5,3.6 9.5,6.3 15.3,6.9 14.4,1.4 28.7,2.6 43,4.6 7.3,1 14.6,2 21.9,3.3 7.5,1.4 15,2.9 22.4,4.7 9.3,2.2 18.4,4.8 27.3,8.1 9.8,3.6 19.2,7.9 28,13.7 3.5,2.3 11.9,9.1 12.9,10 9.2,8.4 16.1,18.4 20.7,30 3,7.5 5.5,15.2 8.2,22.8 2.3,6.4 4.6,12.8 6.7,19.2 3.7,11 7.4,21.9 11.1,32.9 1.9,5.6 3.7,11.3 5.6,16.9 1.8,5.2 3.5,10.5 5.3,15.7 0.1,0 0.1,0 0.2,-0.1 0.1,0 0.1,0.1 0.2,0.1 1.8,-5.2 3.6,-10.5 5.3,-15.7 1.9,-5.6 3.7,-11.3 5.6,-16.9 3.7,-11 7.3,-22 11.1,-32.9 2.2,-6.4 4.5,-12.8 6.7,-19.2 2.7,-7.6 5.3,-15.3 8.2,-22.8 4.6,-11.6 11.5,-21.6 20.7,-30 1,-0.9 9.4,-7.7 12.9,-10 8.8,-5.7 18.2,-10.1 28,-13.7 8.9,-3.3 18.1,-5.9 27.3,-8.1 7.4,-1.8 14.9,-3.3 22.4,-4.7 7.2,-1.3 14.6,-2.3 21.9,-3.3 14.3,-2 28.7,-3.2 43,-4.6 5.7,-0.5 10.8,-3.3 15.3,-6.9 8.6,-6.9 14,-16 18,-26.2 1.1,-2.7 2,-5.5 2.9,-8.3 0.2,-0.5 0.6,-1.1 0.2,-1.6 z m -197.9,104 c -0.9,1.2 -0.8,1.5 0.7,1.9 9.3,2.5 18.7,4.9 28.1,7 7.5,1.7 15.1,3.2 22.7,4.7 7.3,1.4 14.6,2.8 22.2,2.2 12.5,-1 25,-6.4 33.7,-15.2 -3.9,-0.2 -7.6,-0.5 -11.2,-0.5 -13,-0.2 -25.9,-1.5 -38.7,-2.9 -8,-0.9 -15.9,-2 -23.8,-3.4 -7.2,-1.3 -23.9,-4.6 -24.5,-4.6 -0.7,0.6 -6.9,7.7 -9.2,10.8 z m 22.5,-21.1 c -2.2,1.4 -4.4,2.8 -6.6,4.8 3.7,0.8 7,1.5 10.4,2.2 4.3,0.8 8.6,1.5 12.9,2.1 l 17.1,2.4 c 11.5,1.5 23.1,2.4 34.7,2.9 10.7,0.4 20.7,-2.4 29.8,-8 3.3,-2 6.3,-4.4 9.1,-7.1 1.1,-1.1 2.1,-2.3 3.2,-3.4 -3.3,0 -6.6,-0.1 -9.8,0 -17.7,0.9 -35.5,0.7 -53.2,0.1 -9.5,-0.4 -19.1,-0.4 -28.4,-1.8 -7.7,-1.3 -13.3,2 -19.2,5.8 z" />
      </g>
   </svg>
   <g transform="scale(2) translate(75,125)">
      <g aria-label="织">
         <path style="fill:#01a4e3"
            d="m -35.78,8.015 5.96,-2.16 v 2 l -8.48,3 v -2.12 l 3.88,-11.6 -3.88,1.6 v -1.76 l 4,-15.84 h 2.08 l -3.64,14.76 2.16,-0.96 2.08,-6.16 h 2.08 z m 8.28,-4.84 v -21.76 h 12.88 v 21.76 z m 10.96,-19.84 h -9.04 v 17.92 h 9.04 z m -9.48,35.68 h -1.96 l 2,-13.32 h 1.96 z m 9.92,0 -2,-13.32 h 1.96 l 2,13.32 z m -22.2,-0.16 v -2 l 8.64,-2.88 v 1.96 z" />
      </g>
      <g aria-label="梦">
         <path style="fill:#01a4e3"
            d="m -7.26,-0.145 v -14.56 h -4.96 v -1.96 h 4.96 v -2.52 h 1.92 v 2.52 h 4.96 v 1.96 h -4.96 v 14.56 z m 12.6,0 v -14.56 H 0.38 v -1.96 h 4.96 v -2.52 H 7.3 v 2.52 h 4.96 v 1.96 H 7.3 v 14.56 z m -15.64,-0.24 h -1.96 l 1.64,-12.76 h 1.96 z m 8,0 -1.64,-12.76 h 1.92 l 1.68,12.76 z m 4.6,0 H 0.38 l 1.64,-12.76 h 1.96 z m 8.04,0 -1.68,-12.76 h 1.96 l 1.68,12.76 z m -6.32,18.8 -4.28,-4.2 -12.04,4.8 v -2.12 l 10.56,-4.16 -4.88,-4.84 h 2.64 l 4.12,4.08 9.36,-3.72 V 4.375 H -8.1 l -2.16,3.84 h -2.2 l 4.28,-7.64 h 2.2 l -1.04,1.88 h 18.44 v 7.08 l -9.8,3.92 5.04,4.96 z" />
      </g>
      <g aria-label="者">
         <path style="fill:#01a4e3"
            d="m 19.02,-5.265 -3.28,7 -2.08,0.04 3.28,-7.04 h -2.96 v -1.92 h 11.16 v -7.28 H 13.98 v -1.96 h 11.16 v -2.6 h 1.92 v 2.6 H 38.1 v 1.96 H 27.06 v 7.28 h 5.48 l 1.68,-5.8 h 2.04 l -1.68,5.8 h 3.52 v 1.92 z m -2.32,24 V 0.295 h 20.16 v 18.44 z m 1.92,-8.52 v 6.56 H 34.94 V 2.255 H 18.62 v 6.04 h 14.92 v 1.92 z" />
      </g>
   </g>
</svg>